<svg xmlns="http://www.w3.org/2000/svg" viewBox="0 0 256 256">
  <rect width="256" height="256" fill="#ffffff"></rect>
  <path fill="#5382A1" d="M128 0C57.3 0 0 57.3 0 128s57.3 128 128 128 128-57.3 128-128S198.7 0 128 0zm16.6 194.5c-3.4 7.3-8.4 13.2-14.9 17.7-4.4 3.1-9.4 5.2-14.9 6.2-7.7 1.5-15.3.2-22.6-3.8-1.2-.6-1.8-1.7-1.9-3.1 0-1.3.5-2.4 1.5-3.3 8.6-6.2 14.6-13.6 17.9-22.3l5.7-15.4h18.2l-5.9 15.2c1.9-.2 3.5-.4 4.8-.8l11.6-3.4z"></path>
  <path fill="#E76F00" d="M84.5 137.8c4.6-9.4 11-17.6 19.1-24.6l12.1-10.6h18.3l-13.6 11.9c-6.6 5.8-11.6 12.2-14.9 19.3l-5.3 11.1-15.7-6.9z"></path>
</svg>
